<?xml version="1.0" encoding="iso-8859-1"?>
<!-- Generator: Adobe Illustrator 19.0.0, SVG Export Plug-In . SVG Version: 6.00 Build 0)  -->
<svg version="1.1" id="Layer_1" xmlns="http://www.w3.org/2000/svg" xmlns:xlink="http://www.w3.org/1999/xlink" x="0px" y="0px"
	 viewBox="0 0 512 512" style="enable-background:new 0 0 512 512;" xml:space="preserve">
<path style="fill:#685642;" d="M370.477,139.876c0.433,5.204,0.655,10.483,0.655,15.835c0,38.764-11.718,73.929-30.731,100.289
	h-48.445V139.876H370.477z"/>
<g>
	<path style="fill:#A58763;" d="M371.132,356.289c0,5.352-0.222,10.631-0.655,15.835h-78.521V256h48.445
		C359.414,282.36,371.132,317.524,371.132,356.289z"/>
	<path style="fill:#A58763;" d="M370.477,139.876h-78.521V18.474l0.971-2.787C334.659,33.813,365.664,81.825,370.477,139.876z"/>
</g>
<g>
	<path style="fill:#685642;" d="M291.957,372.124h78.521c-4.814,58.051-35.819,106.063-77.549,124.189l-0.971-2.787V372.124z"/>
	<path style="fill:#685642;" d="M292.928,15.687l-0.971,2.787v121.402H218.06V18.474l-2.966-0.961
		c12.71-6.197,26.497-9.596,40.907-9.596C268.922,7.918,281.337,10.652,292.928,15.687z"/>
</g>
<path style="fill:#A58763;" d="M291.957,493.526l0.971,2.787c-11.591,5.036-24.006,7.77-36.927,7.77
	c-14.41,0-28.197-3.399-40.907-9.596l2.966-0.961V372.124h73.897V493.526z"/>
<rect x="218.06" y="256" style="fill:#685642;" width="73.897" height="116.124"/>
<rect x="218.06" y="139.876" style="fill:#A58763;" width="73.897" height="116.124"/>
<path style="fill:#685642;" d="M218.06,372.124v121.402l-2.966,0.961c-39.714-19.382-68.914-66.169-73.57-122.363H218.06z"/>
<path style="fill:#A58763;" d="M218.06,256v116.124h-76.536c-0.433-5.204-0.655-10.483-0.655-15.835
	c0-38.764,11.707-73.929,30.731-100.289H218.06z"/>
<path style="fill:#685642;" d="M218.06,139.876V256H171.6c-19.023-26.36-30.731-61.524-30.731-100.289
	c0-5.352,0.222-10.631,0.655-15.835H218.06z"/>
<path style="fill:#A58763;" d="M218.06,18.474v121.402h-76.536c4.656-56.193,33.855-102.981,73.57-122.363L218.06,18.474z"/>
<path d="M379.049,155.711c0-5.504-0.229-11.053-0.682-16.49C373.4,79.32,341.101,27.978,296.082,8.425
	C283.214,2.834,269.728,0,256.001,0c-15.296,0-30.226,3.497-44.38,10.398c-21.031,10.264-39.437,27.686-53.226,50.382
	c-13.834,22.77-22.396,49.895-24.762,78.441c-0.453,5.439-0.682,10.987-0.682,16.492c0,36.81,10.267,72.182,29.013,100.289
	c-18.746,28.106-29.013,63.478-29.013,100.289c0,5.504,0.229,11.053,0.682,16.488c2.366,28.547,10.928,55.673,24.762,78.443
	c13.789,22.696,32.195,40.118,53.229,50.384C225.775,508.503,240.705,512,256.001,512c13.728,0,27.213-2.834,40.082-8.425
	c45.02-19.553,77.318-70.895,82.285-130.794c0.453-5.439,0.682-10.987,0.682-16.492c0-36.794-10.27-72.17-29.014-100.289
	C368.78,227.881,379.049,192.506,379.049,155.711z M336.268,248.082h-36.394V147.794h63.167c0.113,2.637,0.173,5.282,0.173,7.918
	C363.214,189.789,353.667,222.414,336.268,248.082z M225.977,248.082V147.794h58.062v100.289H225.977z M284.039,263.918v100.289
	h-58.062V263.918H284.039z M361.653,131.959h-61.779V28.107C332.291,47.134,355.617,86.169,361.653,131.959z M284.039,20.718
	v111.241h-58.062V21.421c9.716-3.705,19.782-5.586,30.023-5.586C265.531,15.835,274.933,17.492,284.039,20.718z M171.928,69.002
	c10.299-16.951,23.392-30.504,38.214-39.694v102.651h-59.797C153.363,109.021,160.746,87.405,171.928,69.002z M148.787,155.711
	c0-2.635,0.06-5.28,0.173-7.918h61.182v100.289h-34.411C158.333,222.429,148.787,189.803,148.787,155.711z M175.732,263.918h34.411
	v100.289H148.96c-0.113-2.637-0.173-5.282-0.173-7.918C148.787,322.197,158.333,289.571,175.732,263.918z M171.928,442.998
	c-11.181-18.402-18.565-40.018-21.583-62.957h59.797v102.65C195.319,473.5,182.226,459.948,171.928,442.998z M225.977,490.579
	V380.041h58.062v111.241c-9.106,3.225-18.508,4.882-28.039,4.882C245.759,496.165,235.693,494.285,225.977,490.579z
	 M299.874,483.892v-103.85h61.779C355.617,425.83,332.291,464.865,299.874,483.892z M363.214,356.289c0,2.635-0.06,5.28-0.173,7.918
	h-63.167V263.918h36.394C353.667,289.586,363.214,322.211,363.214,356.289z"/>
<g>
</g>
<g>
</g>
<g>
</g>
<g>
</g>
<g>
</g>
<g>
</g>
<g>
</g>
<g>
</g>
<g>
</g>
<g>
</g>
<g>
</g>
<g>
</g>
<g>
</g>
<g>
</g>
<g>
</g>
</svg>
