<?xml version="1.0" encoding="iso-8859-1"?>
<!-- Generator: Adobe Illustrator 18.0.0, SVG Export Plug-In . SVG Version: 6.00 Build 0)  -->
<!DOCTYPE svg PUBLIC "-//W3C//DTD SVG 1.1//EN" "http://www.w3.org/Graphics/SVG/1.1/DTD/svg11.dtd">
<svg version="1.1" id="Capa_1" xmlns="http://www.w3.org/2000/svg" xmlns:xlink="http://www.w3.org/1999/xlink" x="0px" y="0px"
	 viewBox="0 0 297.5 297.5" style="enable-background:new 0 0 297.5 297.5;" xml:space="preserve">
<g>
	<g id="XMLID_45_">
		<g>
			<path style="fill:#EA5B2C;" d="M169.23,219.57h-32.92c-12.809,0-21.51-4.73-26.569-14.46c-1.11-2.141-1.94-4.32-2.56-6.36h32.78
				c12.83,0,21.56,4.75,26.691,14.51C167.77,215.38,168.61,217.54,169.23,219.57z"/>
			<path style="fill:#EA5B2C;" d="M136.309,242.05h32.92c-0.569,1.87-1.329,3.851-2.31,5.8c-5.09,10.11-13.91,15.02-26.96,15.02
				h-32.771c0.561-1.88,1.311-3.87,2.29-5.83C114.5,246.95,123.27,242.05,136.309,242.05z"/>
			<path style="fill:#EA5B2C;" d="M242.73,151.4l33.15-11.051c-2.87,21.16-12.84,40.091-27.43,54.25c1.23-4.64,1.88-9.5,1.88-14.489
				C250.33,169.98,247.689,160.19,242.73,151.4z"/>
			<path style="fill:#EA5B2C;" d="M276.29,118.58l-47.55,15.85c-9.07-7.84-20.03-13.08-31.851-15.29L237.4,51.63
				C258.84,66.84,273.6,90.96,276.29,118.58z"/>
			<path style="fill:#EA5B2C;" d="M219.439,41.68l-45.76,76.261h-51.34V34.63h61.75C196.6,34.63,208.54,37.14,219.439,41.68z"/>
			<path style="fill:#E1757B;" d="M101.82,34.63v83.311h-8.99c-29.351,0-50.32-15.12-62.3-44.96
				C24.76,58.63,22.4,44.03,21.439,34.63H101.82z M71.55,60c0-2.7-1.09-5.34-3.01-7.25c-1.89-1.91-4.54-3.01-7.25-3.01
				c-2.7,0-5.34,1.1-7.25,3.01c-1.91,1.91-3.01,4.55-3.01,7.25s1.1,5.35,3.01,7.25c1.92,1.91,4.55,3.01,7.25,3.01
				s5.35-1.1,7.25-3.01C70.46,65.35,71.55,62.7,71.55,60z"/>
			<path d="M297.25,127.71c0,60.45-47.28,110.021-106.67,113.41c-0.86,4.52-2.43,10.2-5.33,15.95
				c-8.54,16.97-24.63,26.319-45.29,26.319H95.15c-5.671,0-10.261-4.59-10.261-10.26c0-1.3,0.17-13.1,6.221-25.24
				c3.51-7.06,8.35-12.779,14.27-17.08c-5.92-4.3-10.76-10.02-14.27-17.069c-6.051-12.15-6.221-23.94-6.221-25.24
				c0-5.67,4.59-10.26,10.261-10.26h44.81c20.66,0,36.75,9.34,45.29,26.31c2.87,5.7,4.439,11.33,5.3,15.83
				c22.16-2.8,39.26-19.79,39.26-40.27c0-22.57-21-41.65-45.85-41.65h-65.79l-13.85,27.69c-1.79,3.6-5.42,5.68-9.181,5.68
				c-1.54,0-3.109-0.35-4.58-1.09c-5.069-2.53-7.12-8.7-4.59-13.76l9.26-18.52H92.83c-38.22,0-66.42-20.191-81.57-58.39
				C0.38,52.6,0.25,25.51,0.25,24.37c0-5.67,4.6-10.26,10.26-10.26h173.58C246.49,14.11,297.25,65.07,297.25,127.71z M228.74,134.43
				l47.55-15.85c-2.69-27.62-17.45-51.74-38.89-66.95l-40.511,67.51C208.71,121.35,219.67,126.59,228.74,134.43z M275.88,140.35
				L242.73,151.4c4.96,8.79,7.6,18.58,7.6,28.71c0,4.989-0.65,9.85-1.88,14.489C263.04,180.44,273.01,161.51,275.88,140.35z
				 M173.68,117.94l45.76-76.261c-10.899-4.54-22.84-7.05-35.35-7.05h-61.75v83.311H173.68z M136.309,219.57h32.92
				c-0.619-2.03-1.46-4.19-2.579-6.311c-5.131-9.76-13.86-14.51-26.691-14.51h-32.78c0.62,2.04,1.45,4.22,2.56,6.36
				C114.8,214.84,123.5,219.57,136.309,219.57z M169.23,242.05h-32.92c-13.04,0-21.809,4.9-26.83,14.99
				c-0.979,1.96-1.729,3.95-2.29,5.83h32.771c13.05,0,21.87-4.91,26.96-15.02C167.9,245.9,168.66,243.92,169.23,242.05z
				 M101.82,117.94V34.63H21.439c0.961,9.4,3.32,24,9.091,38.351c11.98,29.84,32.949,44.96,62.3,44.96H101.82z"/>
			<path d="M68.54,52.75c1.92,1.91,3.01,4.55,3.01,7.25s-1.09,5.35-3.01,7.25c-1.9,1.91-4.55,3.01-7.25,3.01s-5.33-1.1-7.25-3.01
				c-1.91-1.9-3.01-4.55-3.01-7.25s1.1-5.34,3.01-7.25c1.91-1.91,4.55-3.01,7.25-3.01C64,49.74,66.65,50.84,68.54,52.75z"/>
		</g>
		<g>
		</g>
	</g>
</g>
<g>
</g>
<g>
</g>
<g>
</g>
<g>
</g>
<g>
</g>
<g>
</g>
<g>
</g>
<g>
</g>
<g>
</g>
<g>
</g>
<g>
</g>
<g>
</g>
<g>
</g>
<g>
</g>
<g>
</g>
</svg>
